<svg width="220" height="260" viewBox="0 0 220 260" xmlns="http://www.w3.org/2000/svg">
  <defs>
    <linearGradient id="buildingGradient" x1="0" y1="0" x2="0" y2="1">
      <stop offset="0%" stop-color="#0D47A1" />
      <stop offset="100%" stop-color="#1565C0" />
    </linearGradient>
  </defs>
  <g fill="url(#buildingGradient)">
    <path d="M34 210V120l46-20v110h-46z" />
    <path d="M88 220V80l46-20v160h-46z" />
    <path d="M142 210V130l44 16v64h-44z" />
  </g>
  <path d="M20 110l90-40 90 40-90 34z" fill="#0D47A1" />
  <path d="M60 80l50-22 50 22-50 20z" fill="#0D47A1" />
  <path d="M110 45l75 33-75 30-75-30z" fill="#0D47A1" />
  <path d="M110 25l95 40-95 36-95-36z" fill="#0D47A1" />
  <rect x="100" y="15" width="20" height="40" fill="#0D47A1" />
  <rect x="146" y="150" width="10" height="34" rx="5" fill="#0D47A1" />
</svg>

